<?xml version="1.0" encoding="UTF-8" standalone="no"?>
<!-- Generator: Adobe Illustrator 13.0.0, SVG Export Plug-In . SVG Version: 6.00 Build 14948)  -->
<svg
   xmlns:dc="http://purl.org/dc/elements/1.1/"
   xmlns:cc="http://web.resource.org/cc/"
   xmlns:rdf="http://www.w3.org/1999/02/22-rdf-syntax-ns#"
   xmlns:svg="http://www.w3.org/2000/svg"
   xmlns="http://www.w3.org/2000/svg"
   xmlns:sodipodi="http://sodipodi.sourceforge.net/DTD/sodipodi-0.dtd"
   xmlns:inkscape="http://www.inkscape.org/namespaces/inkscape"
   version="1.1"
   id="Capa_1"
   x="0px"
   y="0px"
   width="1587.84px"
   height="2243.52px"
   viewBox="0 0 1587.84 2243.52"
   enable-background="new 0 0 1587.84 2243.52"
   xml:space="preserve"
   sodipodi:version="0.32"
   inkscape:version="0.45.1"
   sodipodi:docname="el_país_valencià.svg"
   inkscape:output_extension="org.inkscape.output.svg.inkscape"
   sodipodi:docbase="C:\Users\mutxamel\Desktop"><metadata
   id="metadata3757"><rdf:RDF><cc:Work
       rdf:about=""><dc:format>image/svg+xml</dc:format><dc:type
         rdf:resource="http://purl.org/dc/dcmitype/StillImage" /></cc:Work></rdf:RDF></metadata><defs
   id="defs3755" /><sodipodi:namedview
   inkscape:window-height="820"
   inkscape:window-width="1440"
   inkscape:pageshadow="2"
   inkscape:pageopacity="0.0"
   guidetolerance="10.0"
   gridtolerance="10.0"
   objecttolerance="10.0"
   borderopacity="1.0"
   bordercolor="#666666"
   pagecolor="#ffffff"
   id="base"
   inkscape:zoom="0.33607902"
   inkscape:cx="214.44768"
   inkscape:cy="844.43946"
   inkscape:window-x="-8"
   inkscape:window-y="-8"
   inkscape:current-layer="Capa_1" />
<g
   id="g3740"
   style="fill:#000000;fill-opacity:1">
	<g
   id="g3742"
   style="fill:#000000;fill-opacity:1">
		<path
   fill-rule="evenodd"
   clip-rule="evenodd"
   d="M 903.84,61.92 C 905.206,64.233 907.873,65.247 907.68,69.12 C 910.774,70.986 913.288,73.433 914.401,77.28 C 916.666,78.375 920.101,78.3 922.56,79.2 C 923.541,80.299 924.722,81.198 924.96,83.04 C 929.067,83.776 932.611,84.074 936,85.92 C 940.693,88.476 944.017,93.976 948.48,94.56 C 951.209,94.917 953.103,93.107 955.679,93.12 C 959.421,93.139 960.909,95.372 964.799,96.48 C 967.342,95.674 967.116,93.107 969.599,91.68 C 975.528,88.272 987.122,89.773 994.079,90.72 C 995.89,92.637 994.556,94.54 995.518,96.96 C 997.331,101.511 1002.698,103.954 998.399,110.88 C 999.584,114.095 1003.17,118.766 1007.518,118.08 C 1012.139,117.351 1014.665,106.161 1019.039,103.2 C 1020.377,102.294 1023.374,101.856 1025.279,100.8 C 1030.477,97.919 1037.035,92.489 1041.119,91.68 C 1049.472,90.024 1053.541,96.864 1060.319,96.48 C 1064.53,96.241 1065.568,93.087 1071.839,93.12 C 1074.714,90.93 1073.115,86.109 1076.639,84.96 C 1080.785,83.608 1082.903,87.063 1085.759,89.28 C 1088.317,86.428 1093.114,87.343 1094.879,90.24 C 1097.716,87.797 1100.188,84.989 1105.919,85.44 C 1109.019,90.66 1110.631,97.368 1114.559,101.76 C 1114.753,103.806 1114.095,106.705 1115.039,108 C 1121.163,108.364 1122.018,103.46 1126.559,102.24 C 1131.204,105.276 1136.233,107.926 1139.999,111.84 C 1143.921,112.018 1146.758,113.677 1147.199,116.16 C 1147.553,118.154 1143.311,126.268 1141.439,129.12 C 1139.934,131.411 1137.772,132.218 1137.119,133.44 C 1136.687,137.489 1134.706,139.987 1133.279,143.04 C 1133.825,145.968 1134.598,148.197 1133.279,150.72 C 1136.162,155.197 1142.389,156.329 1144.319,161.76 C 1145.866,161.068 1148.344,161.306 1150.558,161.281 C 1155.844,165.616 1160.974,170.076 1169.758,171.361 C 1171.147,171.564 1172.684,171.068 1174.078,171.361 C 1178.492,172.29 1184.306,176.01 1188.958,175.681 C 1190.877,175.545 1192.385,173.616 1194.238,173.281 C 1199.728,172.287 1204.357,176.034 1209.118,175.201 C 1211.661,176.017 1212.147,178.891 1211.998,182.401 C 1213.027,183.452 1214.642,183.918 1216.798,183.841 C 1220.569,189.351 1230.095,189.105 1235.038,193.441 C 1234.12,197.803 1231.185,200.149 1228.798,203.041 C 1228.778,208.821 1230.778,212.581 1231.678,217.441 C 1242.473,221.366 1252.598,225.962 1263.838,229.441 C 1269.603,229.225 1274.133,230.387 1274.878,233.761 C 1275.807,237.961 1269.272,247.017 1270.078,252.001 C 1258.75,256.513 1260.521,274.125 1248.478,277.921 C 1248.37,281.013 1246.943,282.786 1247.517,286.561 C 1245.202,288.371 1245.814,291.171 1244.158,293.761 C 1242.148,296.903 1237.993,298.421 1236.478,301.921 C 1234.368,306.796 1235.909,314.281 1229.757,315.361 C 1229.137,323.345 1224.405,328.493 1221.597,335.041 C 1220.047,338.655 1220.48,342.813 1219.198,346.561 C 1218.385,348.935 1215.223,351.001 1215.838,354.241 C 1211.186,357.588 1209.451,363.854 1208.638,371.041 C 1197.693,372.735 1198.704,386.387 1189.918,390.241 C 1189.03,394.313 1190.203,400.446 1188.479,403.68 C 1187.251,405.333 1183.056,404.018 1181.279,405.12 C 1178.334,406.792 1180.234,410.01 1179.359,412.32 C 1177.596,416.973 1171.804,419.767 1168.319,422.4 C 1167.073,425.154 1166.742,428.823 1164.479,430.56 C 1161.551,430.352 1159.919,431.441 1157.758,432 C 1156.301,432.783 1156.753,435.475 1155.838,436.8 C 1144.9,440.646 1150.229,462.803 1140.958,468.96 C 1138.594,470.53 1135.759,470.187 1132.798,471.36 C 1126.606,473.814 1113.615,484.036 1108.798,490.08 C 1106.219,493.315 1102.96,498.084 1101.118,502.08 C 1099.039,506.59 1098.547,511.884 1096.318,516.48 C 1093.417,522.463 1086.22,528.079 1086.717,537.6 C 1081.308,542.119 1082.23,552.094 1081.438,560.16 C 1080.401,561.683 1078.244,562.086 1076.158,562.56 C 1073.441,568.324 1071.116,574.478 1066.078,577.92 C 1061.694,575.88 1059.933,580.589 1056.478,581.28 C 1053.427,581.89 1050.87,579.719 1047.837,580.32 C 1044.253,581.031 1040.439,586.919 1037.277,588.96 C 1032.719,591.903 1029.238,593.878 1026.237,597.12 C 1027.943,605.538 1022.593,611.408 1020.957,617.28 C 1019.127,623.848 1017.938,635.179 1014.717,640.8 C 1013.625,642.706 1010.915,643.733 1009.917,645.6 C 1007.414,650.283 1007.854,656.417 1004.157,660.48 C 1001.377,673.569 1001.271,686.809 993.117,695.04 C 988.126,700.078 978.422,701.994 977.757,711.84 C 972.038,713.96 969.56,720.161 964.797,723.36 C 963.346,724.335 961.453,724.341 959.997,725.28 C 955.87,727.942 953.662,732.748 950.397,736.32 C 948.144,752.012 936.131,761.785 930.716,775.68 C 930.063,777.358 930.362,779.321 929.756,780.96 C 928.497,784.367 925.281,787.64 923.036,791.04 C 920.775,794.463 919.235,798.509 917.276,801.6 C 913.159,808.093 907.17,813.733 904.316,821.28 C 902.646,825.696 902.515,830.854 901.436,835.68 C 900.29,840.804 897.424,845.434 896.635,851.04 C 895.994,855.597 897.547,861.811 896.156,867.36 C 895.403,870.361 890.641,874.993 888.956,877.92 C 887.582,880.306 886.527,883.298 884.636,885.12 C 881.542,888.1 872.139,892.44 869.756,896.64 C 869.111,897.776 869.467,900.133 868.796,901.92 C 868.092,903.796 866.012,905.049 864.956,907.2 C 862.072,913.075 860.447,921.152 859.196,929.28 C 857.634,939.424 851.121,945.482 846.716,953.28 C 844.605,957.019 843.253,961.888 840.956,965.76 C 836.706,972.925 833.659,976.572 834.716,987.36 C 831.593,991.339 830.266,997.256 831.357,1006.08 C 831.957,1010.933 834.519,1014.982 833.756,1020 C 832.836,1026.051 829.305,1029.22 828.477,1037.28 C 828.12,1040.749 827.621,1045.187 827.997,1047.36 C 828.335,1049.313 830.032,1050.224 830.877,1052.16 C 833.471,1058.103 832.477,1065.457 833.757,1071.84 C 834.499,1075.537 836.755,1079.591 838.077,1083.84 C 842.471,1097.96 846.484,1114.602 853.917,1125.6 C 855.323,1133.949 859.9,1140.382 863.997,1149.121 C 868.735,1159.227 873.06,1168.842 878.877,1178.401 C 880.778,1181.524 883.344,1184.311 884.637,1187.041 C 888.339,1194.854 888.947,1202.989 892.797,1208.161 C 894.096,1209.904 899.754,1211.474 900.478,1213.921 C 902.215,1219.804 893.556,1223.711 888.478,1222.561 C 887.851,1225.135 887.705,1228.188 886.557,1230.242 C 889.129,1238.606 888.178,1245.513 890.398,1255.681 C 891.914,1262.629 897.171,1269.397 900.478,1277.282 C 903.752,1285.093 906.291,1293.1 909.597,1299.362 C 915.061,1309.708 918.977,1320.722 925.917,1330.082 C 929.32,1334.671 932.369,1339.605 935.037,1344.481 C 937.828,1349.585 941.132,1353.782 944.157,1358.402 C 947.38,1363.323 949.49,1368.87 953.277,1372.801 C 956.087,1375.718 959.179,1377.725 961.917,1380.961 C 964.42,1383.92 967.344,1386.721 970.077,1389.601 C 980.029,1400.086 989.39,1409.756 1000.317,1419.841 C 1005.064,1424.222 1011.126,1427.111 1015.676,1431.362 C 1019.914,1435.32 1024.364,1439.704 1030.556,1442.402 C 1040.456,1442.523 1046.628,1438.471 1052.157,1444.801 C 1057.587,1443.379 1068.119,1443.465 1075.197,1445.761 C 1081.113,1447.681 1085.559,1452.582 1093.917,1452.481 C 1093.384,1456.325 1097.265,1462.201 1101.597,1463.042 C 1104.595,1463.624 1107.501,1461.487 1110.717,1462.082 C 1113.948,1462.68 1117.973,1468.899 1123.197,1472.162 C 1129.338,1475.996 1138.793,1477.11 1142.397,1483.682 C 1140.535,1487.376 1135.139,1487.821 1135.197,1492.323 C 1135.224,1494.494 1137.872,1495.785 1139.037,1498.562 C 1139.964,1500.773 1139.606,1503.875 1140.477,1505.283 C 1141.509,1506.953 1143.384,1506.913 1145.756,1508.642 C 1149.485,1511.363 1153.473,1515.991 1160.156,1515.363 C 1160.709,1518.635 1159.307,1519.954 1159.196,1522.562 C 1165.441,1526.363 1167.188,1536.769 1158.716,1539.363 C 1139.861,1535.804 1136.443,1550.712 1127.036,1558.083 C 1125.877,1566.542 1118.753,1584.96 1111.676,1571.522 C 1106.617,1572.081 1103.266,1578.754 1099.197,1580.642 C 1097.861,1581.262 1096.335,1580.68 1094.877,1581.122 C 1085.247,1584.045 1083.634,1594.595 1078.077,1602.722 C 1079.075,1606.844 1081.077,1609.962 1082.397,1613.762 C 1071.716,1617.881 1069.649,1604.741 1057.917,1608.482 C 1054.352,1610.125 1055.233,1618.299 1051.197,1619.522 C 1047.844,1620.539 1042.749,1616.414 1039.197,1616.163 C 1033.818,1615.783 1024.672,1617.058 1021.437,1620.003 C 1017.521,1623.568 1015.458,1631.637 1012.796,1636.323 C 1010.594,1640.199 1006.402,1642.295 1004.156,1645.923 C 1003.623,1646.783 999.861,1653.462 1000.316,1655.523 C 1001.251,1659.762 1009.823,1658.273 1008.476,1665.124 C 1007.526,1669.951 998.211,1671.106 996.955,1676.164 C 996.807,1678.072 998.063,1678.575 997.915,1680.483 C 994.44,1687.569 984.754,1688.442 982.075,1696.324 C 972.914,1697.485 972.932,1689.466 966.235,1688.164 C 962.812,1690.854 957.135,1691.202 953.755,1688.164 C 950.86,1690.069 947.943,1691.952 944.635,1693.444 C 944.826,1703.41 932.326,1701.145 923.515,1704.004 C 919.373,1705.348 918.098,1708.073 914.875,1709.764 C 912.87,1710.009 911.623,1709.496 910.555,1708.804 C 906.79,1711.28 903.409,1714.139 899.515,1716.484 C 885.03,1715.919 880.798,1725.607 868.795,1727.524 C 865.094,1730.223 861.467,1732.996 856.795,1734.724 C 852.251,1746.02 837.839,1747.448 831.356,1756.804 C 827.405,1758.738 821.849,1759.915 819.835,1764.004 C 818.962,1765.777 819.535,1768.452 818.875,1770.244 C 816.8,1775.877 812.164,1779.694 809.755,1784.164 C 810.57,1788.697 810.715,1795.317 808.316,1798.084 C 808.847,1805.042 807.386,1810.635 808.795,1815.844 C 809.808,1819.586 814.165,1822.385 812.155,1826.405 C 805.418,1828.33 795.349,1826.169 789.594,1824.005 C 788.139,1822.261 788.393,1818.806 786.235,1817.765 C 782.783,1817.494 782.45,1821.414 780.475,1823.045 C 776.269,1826.517 770.276,1828.029 766.075,1831.685 C 765.492,1833.574 766.148,1835.281 764.635,1836.965 C 762.431,1838.26 757.855,1838.168 755.035,1837.445 C 750.388,1840.637 751.769,1849.859 748.315,1854.245 C 745.127,1868.64 747.123,1884.024 748.795,1899.845 C 750.556,1916.499 758.011,1934.591 745.915,1944.485 C 741.974,1943.122 738.311,1946.229 735.835,1946.406 C 730.883,1946.759 723.899,1943.523 718.555,1943.525 C 703.675,1943.532 697.555,1953.201 691.675,1963.685 C 687.194,1971.676 685.54,1977.968 682.075,1987.206 C 684.656,1990.904 683.57,1997.435 680.155,1999.206 C 680.011,2004.182 680.207,2009.498 677.755,2012.166 C 678.508,2030.22 674.492,2048.754 676.315,2068.326 C 676.849,2074.055 682.3,2079.679 675.835,2083.206 C 675.862,2084.778 677.2,2085.041 676.795,2087.046 C 674.175,2094.953 667.327,2102.782 658.075,2100.966 C 654.247,2102.098 651.742,2104.553 649.435,2107.206 C 651.576,2115.27 646.103,2119.435 645.595,2126.406 C 644.198,2127.409 642.008,2127.618 640.315,2128.326 C 638.209,2135.019 638.935,2144.545 635.515,2149.926 C 631.746,2149.573 631.241,2150.686 626.875,2151.366 C 626.074,2156.005 622.9,2158.271 620.635,2161.446 C 619.893,2169.343 621.225,2179.316 615.835,2182.565 C 615.523,2186.878 616.256,2190.144 616.315,2194.086 C 612.662,2197.527 605.709,2202.957 602.875,2195.525 C 595.226,2195.335 592.902,2189.819 588.475,2186.406 C 582.075,2186.425 580.385,2181.907 573.595,2183.525 C 569.854,2178.466 561.655,2177.866 561.115,2169.605 C 555.663,2168.898 554.896,2165.801 551.035,2161.446 C 547.879,2157.885 544.792,2156.313 544.315,2150.885 C 538.84,2143.24 526.547,2142.413 524.635,2131.205 C 521.097,2128.343 519.094,2123.945 515.995,2120.644 C 514.899,2114.06 510.179,2111.1 509.275,2104.325 C 503.434,2101.686 503.701,2092.938 497.755,2090.405 C 495.504,2082.576 492.123,2075.877 486.235,2071.684 C 486.215,2070.104 485.425,2069.294 485.755,2067.365 C 476.359,2058.681 473.302,2043.658 461.275,2037.604 C 460.699,2031.941 455.594,2030.805 456.475,2023.684 C 456.43,2021.81 454.132,2022.188 454.075,2020.325 C 454.97,2015.424 455.699,2007.918 454.555,2002.564 C 451.123,2001.087 452.037,1999.12 451.195,1993.445 C 450.915,1991.557 449.72,1989.845 449.755,1989.125 C 449.932,1985.481 453.882,1983.365 453.115,1980.005 C 454.31,1978.8 456.719,1978.81 457.915,1977.605 C 458.955,1973.845 461,1971.09 463.675,1968.965 C 465.45,1964.181 467.201,1959.371 470.395,1956.005 C 468.978,1944.807 477.047,1940.459 479.035,1932.484 C 480.514,1926.548 480.92,1919.523 481.915,1911.365 C 486.899,1904.934 490.501,1898.312 488.635,1888.325 C 488.317,1886.625 486.603,1885.241 486.235,1883.524 C 485.955,1882.217 486.578,1880.801 486.235,1879.684 C 483.648,1871.257 474.555,1865.609 475.675,1855.205 C 470.392,1852.808 466.534,1848.985 462.235,1845.604 C 459.959,1845.36 457.777,1845.104 455.515,1844.165 C 453.183,1843.196 450.914,1841.613 447.835,1840.805 C 446.468,1840.446 445.198,1841.175 443.995,1840.805 C 442.027,1840.201 440.09,1838.317 437.755,1837.925 C 429.578,1836.553 420.674,1840.463 417.595,1833.125 C 419.873,1828.741 415.772,1825.925 415.195,1822.564 C 414.362,1817.714 415.966,1811.549 415.675,1805.285 C 415.396,1799.298 415.883,1793.257 415.675,1787.045 C 415.629,1784.759 417.878,1784.768 418.075,1782.725 C 417.248,1779.467 417.424,1775.706 419.515,1774.085 C 415.932,1773.494 412.773,1770.507 414.715,1765.925 C 416.54,1763.662 418.98,1764.795 420.955,1764.005 C 428.74,1760.89 429.773,1749.562 438.235,1749.125 C 440.807,1746.737 442.452,1743.422 445.915,1741.925 C 445.679,1733.393 456.689,1730.768 456.475,1723.205 C 456.391,1720.218 454.082,1718.617 452.155,1716.484 C 450.647,1699.256 456.78,1682.33 463.195,1669.924 C 458.9,1657.259 457.885,1641.314 454.075,1628.164 C 447.851,1626.828 446.366,1617.126 449.275,1610.884 C 440.938,1602.755 432.794,1596.488 423.835,1586.884 C 421.388,1584.261 418.32,1581.165 415.675,1578.724 C 412.726,1576.002 407.972,1574.504 406.075,1572.004 C 402.481,1567.268 403.807,1558.536 403.195,1552.324 C 405.831,1548.24 415.982,1551.671 418.075,1547.044 C 423.896,1546.661 428.587,1549.773 434.395,1548.483 C 436.153,1548.093 436.981,1546.398 438.715,1545.603 C 441.645,1544.26 445.36,1543.686 448.795,1542.244 C 452.313,1540.766 455.911,1540.577 458.875,1539.364 C 461.056,1538.471 462.48,1536.076 464.635,1535.044 C 470.176,1532.39 476.811,1531.781 481.435,1528.324 C 482.758,1519.407 493.177,1519.586 499.675,1515.844 C 497.374,1508.435 496.685,1493.571 503.035,1490.405 C 497.741,1487.858 500.045,1477.715 496.315,1473.604 C 496.271,1467 495.604,1459.773 499.195,1456.804 C 497.884,1449.768 498.935,1442.993 502.555,1439.524 C 500.038,1437.14 497.199,1437.318 494.875,1435.684 C 485.168,1428.862 485.325,1414.634 480.475,1403.044 C 476.895,1403.753 476.134,1405.241 473.275,1404.964 C 469.093,1404.559 463.872,1398.963 459.355,1400.164 C 456.547,1400.91 456.528,1406.497 454.075,1408.324 C 453.316,1408.888 451.95,1408.504 449.755,1409.284 C 446.719,1410.362 439.984,1414.367 436.795,1409.284 C 434.183,1413.409 429.94,1411.475 424.315,1412.164 C 422.383,1412.4 420.629,1414.182 418.555,1414.563 C 414.804,1415.255 411.473,1414.05 407.515,1414.563 C 404.261,1418.097 396.602,1415.42 390.235,1416.003 C 385.524,1416.434 378.598,1420.39 375.355,1414.563 C 375.335,1412.983 374.545,1412.173 374.875,1410.244 C 371.39,1405.889 368.393,1401.047 366.235,1395.364 C 362.453,1391.625 358.031,1388.527 356.155,1382.884 C 353.342,1379.937 348.953,1378.566 348.955,1372.804 C 341.382,1371.697 341.377,1365.648 337.915,1358.884 C 335.366,1353.904 332.045,1350.785 328.795,1345.924 C 319.383,1343.496 315.559,1335.48 306.715,1332.484 C 305.546,1321.542 305.404,1307.505 312.955,1303.684 C 313.358,1297.362 309.84,1294.959 310.555,1288.325 C 312.755,1285.245 316.614,1283.824 320.635,1282.564 C 320.599,1276.214 324.045,1271.666 324.955,1267.205 C 326.216,1261.023 324.809,1255.187 327.835,1251.365 C 330.924,1247.463 336.309,1247.902 339.355,1243.205 C 342.674,1238.087 342.149,1230.906 347.515,1225.925 C 347.196,1215.985 353.994,1209.928 355.675,1200.485 C 354.609,1190.354 356.897,1181.048 356.155,1171.206 C 355.859,1167.274 354.302,1164.07 354.715,1160.645 C 355.45,1154.537 361.479,1148.228 360.955,1143.366 C 360.434,1138.534 354.631,1138.555 351.355,1137.126 C 348.293,1138.586 342.008,1140.164 338.395,1138.086 C 337.467,1136.294 337.249,1133.792 337.435,1130.886 C 334.206,1131.841 333.956,1136.986 327.355,1136.166 C 325.676,1135.957 325.173,1134.257 323.515,1133.766 C 320.071,1132.745 315.851,1134.62 313.915,1132.327 C 311.644,1132.517 312.379,1129.702 311.035,1128.967 C 308.507,1128.839 307.778,1130.51 304.795,1129.927 C 303.156,1128.846 302.113,1127.169 301.435,1125.127 C 298.769,1126.781 298.224,1130.556 293.275,1129.927 C 291.685,1129.277 291.473,1127.249 290.875,1125.607 C 288.605,1125.797 286.869,1125.454 285.115,1125.128 C 282.49,1121.193 278.556,1118.566 271.675,1118.888 C 271.963,1125.212 259.325,1131.8 258.715,1121.768 C 255.477,1121.326 253.459,1119.664 250.555,1118.888 C 249.724,1111.879 242.066,1111.697 235.195,1110.728 C 233.395,1108.673 234.258,1104.22 236.155,1103.048 C 232.722,1102.457 230.503,1105.23 227.515,1103.528 C 226.165,1102.619 226.227,1098.342 227.035,1096.808 C 224.172,1097.24 222.056,1095.42 219.835,1093.928 C 222.018,1103.672 214.262,1110.584 207.835,1104.488 C 207.552,1102.445 208.18,1101.313 208.315,1099.688 C 205.385,1100.438 207.552,1106.285 204.955,1107.368 C 200.451,1108.024 194.561,1108.855 193.435,1105.448 C 192.252,1101.869 197.036,1100.107 196.315,1095.848 C 195.073,1095.406 191.262,1098.035 188.635,1096.328 C 186.637,1090.038 189.548,1084.857 192.955,1082.408 C 190.224,1084.096 186.627,1087.787 182.875,1084.328 C 182.366,1083.213 181.03,1080.445 182.395,1079.048 C 178.347,1077.817 177.944,1072.939 177.115,1068.488 C 173.116,1074.418 163.969,1069.197 168.475,1059.848 C 166.872,1058.25 162.708,1059.215 160.795,1057.928 C 160.985,1053.392 158.401,1051.759 155.515,1049.288 C 155.14,1047.153 156.154,1046.408 155.995,1044.488 C 154.307,1043.776 152.418,1043.265 151.675,1041.608 C 151.335,1039.028 152.222,1037.675 152.635,1035.848 C 156.196,1035.089 158.444,1033.017 161.755,1032.008 C 163.116,1022.086 162.058,1017.88 160.795,1008.488 C 162.175,1007.148 162.843,1005.096 165.595,1005.128 C 165.148,1002.523 163.663,1000.744 163.675,997.928 C 163.679,996.914 164.74,995.563 164.635,994.568 C 164.484,993.144 163.169,991.932 163.195,990.248 C 163.264,985.703 167.158,981.066 164.635,976.328 C 162.738,976.237 158.353,976.382 156.955,974.408 C 154.881,966.488 162.996,964.833 167.515,961.928 C 168.225,957.287 170.667,953.039 175.195,951.848 C 177.128,951.34 179.043,952.23 180.955,951.848 C 183.987,951.242 185.24,948.093 188.155,948.008 C 191.918,943.901 192.934,938.228 194.875,932.648 C 196.66,927.514 200.208,923.111 202.075,918.248 C 205.224,910.044 205.439,902.67 208.315,896.648 C 210.791,891.463 215.435,885.455 220.315,881.288 C 224.061,878.09 229.112,874.518 234.715,871.688 C 237.203,869.157 239.314,864.038 245.275,864.488 C 247.407,864.649 247.871,866.092 249.595,866.888 C 252.255,868.117 256.053,868.897 259.675,870.728 C 266.923,874.395 270.172,875.979 280.795,875.048 C 282.538,874.895 285.687,875.167 287.515,874.568 C 294.157,872.394 296.404,865.726 300.955,859.688 C 296.268,854.935 294.494,847.269 295.195,837.128 C 287.533,828.249 300.193,821.04 300.475,811.208 C 311.145,802.358 317.622,789.315 324.955,777.128 C 324.954,775.209 323.996,774.247 323.995,772.328 C 327.489,768.462 326.888,760.501 326.875,753.128 C 329.251,749.401 332.259,746.985 332.155,742.088 C 332.107,739.822 330.155,738.016 330.235,735.848 C 330.314,733.697 332.481,732.256 333.115,730.088 C 335.49,721.965 331.351,712.145 332.635,702.248 C 331.489,697.48 323.24,690.946 323.515,685.448 C 323.614,683.474 325.554,683.128 327.355,680.168 C 328.277,678.652 327.94,677.302 328.795,676.328 C 332.345,672.286 341.316,670.719 348.955,667.208 C 359.401,662.408 367.412,651.898 374.875,662.888 C 375.972,660.465 376.354,657.326 378.715,656.168 C 384.709,656.644 390.302,655.65 394.075,660.008 C 394.329,658.716 392.566,654.12 395.035,652.808 C 402.046,651.947 408.432,648.057 418.555,650.888 C 420.192,651.346 420.922,652.779 422.395,653.288 C 425.041,654.204 430.324,654.662 432.475,654.248 C 435.389,653.687 437.039,650.512 439.195,649.928 C 439.806,649.762 444.137,649.32 445.435,649.448 C 446.89,649.592 448.56,651.178 450.235,651.368 C 451.888,651.556 453.554,650.647 454.555,650.888 C 456.071,651.253 457.415,652.595 459.355,653.768 C 466.562,658.129 477.503,658.907 480.955,666.728 C 483.493,665.406 484.643,663.688 487.675,663.848 C 492.689,664.114 493.706,669.085 496.315,674.888 C 497.177,676.805 501.177,680.879 501.115,683.528 C 501.04,686.731 495.571,691.148 495.835,695.528 C 497.252,698.596 497.915,703.626 496.315,707.048 C 497.274,710.746 500.656,710.347 501.115,713.768 C 501.631,717.611 496.473,722.455 496.315,727.208 C 496.185,731.114 498.203,733.007 501.115,736.328 C 502.555,736.328 503.995,736.328 505.435,736.328 C 508.71,741.213 514.902,743.182 522.235,744.008 C 526.629,739.762 529.624,734.117 536.155,732.008 C 540.305,725.278 549.975,724.069 557.275,720.488 C 553.147,710.056 536.092,712.55 536.635,697.448 C 529.753,694.442 534.692,686.829 533.275,679.688 C 532.377,677.115 529.162,676.876 528.475,673.928 C 527.38,669.231 530.536,665.692 533.275,663.368 C 532.749,661.654 530.697,661.466 530.395,659.528 C 530.993,650.365 537.168,646.78 546.235,646.088 C 549.81,642.85 555.384,635.536 561.595,640.808 C 565.923,636.016 566.914,627.888 572.155,624.008 C 570.062,615.586 572.929,592.93 583.195,602.888 C 587.047,601.865 588.159,599.931 591.835,600.008 C 594.169,600.057 595.983,602.029 598.555,601.928 C 601.99,601.794 604.166,596.673 608.155,596.168 C 612.606,595.604 614.75,599.238 619.675,599.048 C 622.783,597.036 624.036,593.169 628.795,592.808 C 628.313,586.246 633.871,585.724 635.515,581.288 C 642.159,580.183 650.104,571.256 655.195,579.848 C 654.024,577.711 653.969,574.813 652.315,572.168 C 650.192,568.772 648.967,569.442 647.515,564.008 C 646.992,562.052 646.022,561.101 646.075,559.688 C 646.223,555.76 651.221,550.933 653.275,546.248 C 653.85,544.936 654.079,542.005 654.715,540.968 C 657.317,536.729 663.757,534.773 666.235,531.848 C 668.506,531.977 668.938,533.946 670.555,534.728 C 673.216,528.589 672.599,519.172 679.675,517.448 C 672.153,507.138 679.762,493.833 684.475,484.808 C 680.151,479.52 685.105,474.266 685.915,470.408 C 686.371,468.236 685.675,465.811 685.915,463.688 C 686.581,457.811 689.562,452.533 691.195,448.328 C 696.793,448.17 697.783,452.62 700.795,455.048 C 704.523,456.121 706.946,458.497 709.915,460.328 C 712.939,457.414 720.636,456.792 721.435,462.248 C 724.776,459.144 732.068,450.836 736.795,457.928 C 746.495,454.188 757.169,451.421 764.155,444.968 C 765.713,444.69 766.388,445.295 767.515,445.448 C 770.622,441.995 774.219,439.032 779.035,437.288 C 778.658,433.691 780.688,431.753 780.475,429.608 C 779.723,422.025 769.156,419.835 769.915,413.768 C 770.49,409.178 776.894,409.181 778.075,404.168 C 779.688,403.278 783.702,401.679 785.275,403.688 C 787.372,400.985 789.396,398.209 792.476,396.488 C 794.481,396.242 795.728,396.756 796.795,397.448 C 797,395.253 797.525,393.378 797.275,390.728 C 798.183,389.717 799.634,389.248 801.115,388.808 C 799.569,377.823 809.628,378.442 814.075,373.448 C 816.081,364.094 826.429,363.083 832.795,358.088 C 835.169,343.886 817.166,344.551 817.436,329.768 C 811.486,324.678 800.884,324.24 800.156,313.928 C 797.794,311.01 793.719,309.804 794.396,303.848 C 795.452,302.184 797.467,301.48 799.675,300.968 C 800.656,298.749 800.782,295.675 802.075,293.768 C 811.277,291.13 820.983,288.997 826.554,282.728 C 828.795,281.769 833.058,282.832 835.195,281.768 C 835.182,278.832 833.032,279.571 832.315,276.968 C 830.556,270.583 837.09,262.571 830.875,260.168 C 815.682,268.728 816.269,240.48 823.675,234.248 C 821.867,231.594 822.589,228.292 823.675,225.128 C 820.862,222.293 821.355,219.138 820.795,214.088 C 820.586,212.198 818.975,210.693 818.875,209.288 C 818.56,204.81 821.252,200.56 823.195,197.288 C 823.626,191.921 821.827,188.935 822.715,184.328 C 820.111,183.604 817.621,186.827 813.115,185.768 C 810.635,186.809 811.164,190.858 808.795,192.008 C 804.274,191.383 801.128,191.718 798.235,190.568 C 793.179,188.559 792.036,183.101 786.714,183.848 C 783.98,184.232 783.564,187.74 780.954,188.168 C 775.408,189.078 774.222,182.391 774.234,177.128 C 774.245,172.488 772.595,167.441 773.754,164.648 C 774.523,162.795 779.017,160.713 778.554,157.928 C 778.074,155.038 775.094,156.601 772.794,153.608 C 771.031,151.313 770.885,146.406 771.354,144.488 C 773.126,142.9 775.917,142.33 779.034,142.088 C 782.753,134.447 793.263,133.597 803.994,132.968 C 807.85,134.712 809.88,138.282 809.754,144.008 C 810.458,145.544 813.213,145.029 814.554,145.928 C 817.29,142.583 818.238,137.451 824.634,137.768 C 831.961,131.815 837.78,124.354 851.514,124.808 C 856.987,118.531 848.142,111.921 849.115,104.648 C 849.587,101.115 851.776,100.131 853.435,96.968 C 850.733,90.001 855.889,88.391 855.355,81.128 C 857.018,78.151 859.646,76.139 862.554,74.408 C 864.919,66.693 867.47,59.163 873.594,55.208 C 881.609,52.679 912.968,47.081 903.84,61.92 z "
   id="path3744"
   style="fill:#000000;fill-opacity:1"
   sodipodi:nodetypes="cccccssscscscssssscscccccccsscccccsssscccccccscccsscsscccccsccccsssssccccssscssscscssccssssssssssssssscssssssscsssssccsccssssssssccscssscsssscccccsscccsssssssccccccsccccccssccscccsccccccssscccscccccccccccccccscccccccccccssccccscsssccsssscssccccsccsccccsssccsssssccccccscsssscsscscccccscccccsssccssscccssccccccccccccccccccscccccccccccccccssscccsscsssscsscssccccccssscssssccccsssssssscsssccsscccccccsccccccsssccccsssssccccssccccccccsscccccccccccccccscccssccccssssssscccccccsccccc" />
		<path
   fill-rule="evenodd"
   clip-rule="evenodd"
   d="M1253.76,276.48c3.422-0.039,1.74,6.385-0.96,4.32    C1253.065,279.305,1253.192,277.672,1253.76,276.48z"
   id="path3746"
   style="fill:#000000;fill-opacity:1" />
		<path
   fill-rule="evenodd"
   clip-rule="evenodd"
   d="M 276.96,497.28 C 280.026,506.214 283.126,515.114 289.92,520.32 C 289.667,522.334 290.759,523.002 290.88,524.64 C 292.626,527.374 295.585,528.895 298.08,530.88 C 301.84,530.48 304.304,531.376 306.24,532.8 C 307.558,536.472 306.016,540.699 304.32,542.88 C 307.466,544.854 304.883,548.935 305.76,552 C 307.052,556.512 312.005,557.175 316.32,554.4 C 320.16,555.201 324.202,555.798 326.4,558.24 C 329.992,556.191 332.931,557.971 336.48,557.28 C 339.036,556.782 340.501,554.381 342.72,553.92 C 348.018,552.821 353.11,556.206 360,554.88 C 363.213,559.507 367.863,562.697 370.08,568.32 C 380.511,565.745 384.744,573.049 388.8,578.4 C 389.92,578.4 391.04,578.4 392.16,578.4 C 397.277,586.533 407.564,589.243 404.16,602.4 C 402.891,607.303 400.062,615.124 396.96,616.32 C 395.367,616.934 394.113,615.852 392.16,616.32 C 389.696,616.911 386.49,620.789 382.56,623.04 C 380.922,623.978 379.064,624.18 377.76,624.96 C 373.602,627.448 371.76,631.572 365.28,629.76 C 360.662,632.959 353.153,632.855 347.52,635.52 C 343.795,637.283 341.553,643.188 336.48,638.88 C 330.913,641.374 322.395,642.444 315.36,645.12 C 312.652,646.15 311.027,648.317 306.24,647.52 C 302.096,646.83 298.464,642.097 294.24,640.32 C 292.162,639.446 288.996,639.301 286.56,638.4 C 284.105,637.492 282.143,635.979 280.32,635.52 C 276.751,634.621 272.742,635.094 269.28,634.08 C 267.423,633.536 265.863,631.993 264,631.68 C 260.251,631.05 254.915,631.594 250.56,632.16 C 247.124,632.606 242.859,635.44 239.04,635.04 C 235.604,634.68 231.019,630.123 229.92,625.92 C 228.794,621.612 229.916,616.309 228.48,612 C 226.17,605.069 220.31,601.755 217.44,597.12 C 215.517,594.013 213.955,589.304 212.16,584.64 C 209.728,578.324 203.073,574.144 210.72,568.8 C 208.016,565.709 203.568,561.672 198.24,559.68 C 195.353,558.601 192.67,559.304 190.56,557.28 C 188.956,555.741 188.766,552.612 187.68,550.08 C 186.76,547.934 184.434,545.802 184.32,543.84 C 184.069,539.517 187.661,538.298 189.6,535.2 C 196.121,534.118 198.542,537.138 201.6,539.52 C 207.88,535.773 216.6,537.434 221.76,540.96 C 224.972,539.969 224.788,537.366 227.52,536.64 C 236.353,534.293 239.48,541.733 242.88,546.24 C 248.304,540.143 256.232,536.552 263.04,531.84 C 263.176,525.438 257.254,519.212 258.24,509.28 C 259.115,500.46 260.8,490.395 268.8,489.12 C 270.526,473.983 287.151,490.785 276.96,497.28 z "
   id="path3748"
   style="fill:#000000;fill-opacity:1"
   sodipodi:nodetypes="ccccccsccssccccssssscscssssssssssssscsssscccsccscc" />
		<path
   fill-rule="evenodd"
   clip-rule="evenodd"
   d="M965.76,1707.84c0.212,1.813-0.946,2.254-1.439,3.36    c-2.851,0.29-4.546-0.575-4.32-3.36C961.792,1707.367,964.647,1706.26,965.76,1707.84z"
   id="path3750"
   style="fill:#000000;fill-opacity:1" />
		<path
   fill-rule="evenodd"
   clip-rule="evenodd"
   d="M779.52,1961.28c-5.198,1.947-7.967-1.688-11.52-2.88    C770.553,1956.991,778.945,1957.561,779.52,1961.28z"
   id="path3752"
   style="fill:#000000;fill-opacity:1" />
	</g>
</g>
</svg>